<?xml version="1.0" standalone="no"?>
<!DOCTYPE svg PUBLIC "-//W3C//DTD SVG 20010904//EN"
 "http://www.w3.org/TR/2001/REC-SVG-20010904/DTD/svg10.dtd">
<svg version="1.0" xmlns="http://www.w3.org/2000/svg"
 width="1280.000000pt" height="324.000000pt" viewBox="0 0 1280.000000 324.000000"
 preserveAspectRatio="xMidYMid meet">

<g transform="translate(0.000000,324.000000) scale(0.100000,-0.100000)"
fill="#000000" stroke="none">
<path fill="currentColor" d="M9843 2686 c-148 -24 -269 -100 -326 -205 -15 -27 -36 -84 -47 -127
-19 -73 -20 -112 -20 -664 0 -552 1 -591 20 -664 58 -229 199 -327 499 -344
l116 -7 7 -65 c21 -207 144 -341 345 -372 64 -10 290 1 396 18 l37 7 0 143 0
144 -97 0 c-153 0 -201 23 -206 96 l-2 29 145 6 c162 7 246 25 333 71 105 56
169 149 204 295 22 92 32 1042 12 1198 -32 254 -123 370 -339 430 -58 17 -117
19 -530 21 -344 2 -486 -1 -547 -10z m853 -405 c64 -39 65 -48 62 -611 l-3
-505 -23 -32 c-41 -58 -83 -65 -399 -61 -266 3 -280 4 -313 25 -68 42 -65 16
-68 573 -3 563 -2 572 62 611 29 18 53 19 341 19 288 0 312 -1 341 -19z"/>
<path fill="currentColor" d="M8240 2475 l0 -195 125 0 125 0 -2 -587 -3 -588 -122 -3 -123 -3 0
-194 0 -195 505 0 505 0 0 195 0 194 -122 3 -123 3 -3 588 -2 587 125 0 125 0
0 195 0 195 -505 0 -505 0 0 -195z"/>
<path fill="currentColor" d="M2390 2205 c-104 -23 -189 -54 -278 -101 l-83 -43 -9 25 c-6 14 -10
34 -10 45 0 11 -5 29 -10 40 -10 18 -23 19 -225 19 l-215 0 0 -740 0 -740 245
0 245 0 0 519 c0 424 2 521 14 530 22 18 193 50 307 57 111 7 165 -2 191 -33
10 -13 14 -125 18 -542 l5 -526 243 -3 243 -2 -3 613 -3 612 -33 67 c-41 83
-117 155 -198 188 -52 21 -78 24 -219 26 -112 3 -179 -1 -225 -11z"/>
<path  fill="currentColor" d="M3601 2204 c-156 -42 -261 -155 -291 -314 -14 -73 -13 -800 1 -876
32 -173 157 -293 338 -324 46 -8 196 -10 462 -7 418 4 426 5 525 55 54 28 130
112 160 177 41 89 46 156 42 582 -4 378 -5 401 -26 456 -41 112 -122 195 -231
239 -55 22 -65 23 -491 25 -358 2 -445 0 -489 -13z m716 -388 l28 -24 3 -326
c3 -355 0 -376 -54 -396 -14 -6 -115 -10 -225 -10 -218 0 -251 7 -269 56 -14
37 -13 647 1 678 6 13 21 29 33 34 12 6 110 11 238 11 215 1 217 1 245 -23z"/>
<path fill="currentColor" d="M7270 2213 c-70 -2 -199 -12 -435 -33 -55 -5 -108 -12 -118 -15 -15
-6 -17 -25 -17 -176 l0 -169 49 0 c28 0 130 7 228 15 98 8 256 15 351 17 l174
3 24 -28 c21 -24 24 -38 24 -103 l0 -74 -297 0 c-331 0 -391 -6 -478 -49 -102
-51 -170 -135 -200 -250 -19 -75 -20 -296 -1 -366 32 -121 107 -214 210 -261
180 -82 489 -48 723 81 35 19 68 33 73 30 5 -3 11 -19 14 -35 3 -17 9 -44 12
-60 l6 -30 216 2 217 3 3 535 c3 572 -2 656 -43 747 -46 101 -139 179 -251
208 -56 14 -238 17 -484 8z m278 -1000 l-3 -87 -68 -17 c-93 -23 -265 -43
-323 -36 -59 6 -93 39 -101 94 -6 48 17 105 50 121 13 6 107 11 235 11 l213 1
-3 -87z"/>
<path  fill="currentColor" d="M4900 2186 c0 -4 109 -296 255 -681 48 -126 96 -252 106 -280 89
-243 188 -498 196 -506 5 -5 120 -8 283 -7 230 3 274 5 281 18 5 8 45 112 89
230 44 118 109 292 145 385 195 515 315 835 315 840 0 3 -116 5 -258 5 l-257
0 -13 -42 c-7 -24 -45 -142 -83 -263 -39 -121 -87 -269 -106 -330 -86 -271
-110 -340 -118 -340 -9 0 -9 -3 -252 760 -24 77 -50 156 -56 175 l-13 35 -257
3 c-141 1 -257 0 -257 -2z"/>
</g>
</svg>
